<svg width="500" height="42" viewBox="0 0 500 42" fill="none" xmlns="http://www.w3.org/2000/svg">
<rect x="0.5" y="0.5" width="499" height="41" rx="11.5" fill="#F9F9F9" stroke="#D1D1D1"/>
<path d="M23.485 25.14H19.555L18.925 27H16.24L20.05 16.47H23.02L26.83 27H24.115L23.485 25.14ZM22.825 23.16L21.52 19.305L20.23 23.16H22.825ZM30.5546 15.9V27H27.9896V15.9H30.5546ZM34.9784 15.9V27H32.4134V15.9H34.9784ZM39.5059 22.815C39.5059 21.945 39.6809 21.185 40.0309 20.535C40.3909 19.885 40.8859 19.385 41.5159 19.035C42.1559 18.685 42.8859 18.51 43.7059 18.51C44.7559 18.51 45.6309 18.785 46.3309 19.335C47.0409 19.885 47.5059 20.66 47.7259 21.66H44.9959C44.7659 21.02 44.3209 20.7 43.6609 20.7C43.1909 20.7 42.8159 20.885 42.5359 21.255C42.2559 21.615 42.1159 22.135 42.1159 22.815C42.1159 23.495 42.2559 24.02 42.5359 24.39C42.8159 24.75 43.1909 24.93 43.6609 24.93C44.3209 24.93 44.7659 24.61 44.9959 23.97H47.7259C47.5059 24.95 47.0409 25.72 46.3309 26.28C45.6209 26.84 44.7459 27.12 43.7059 27.12C42.8859 27.12 42.1559 26.945 41.5159 26.595C40.8859 26.245 40.3909 25.745 40.0309 25.095C39.6809 24.445 39.5059 23.685 39.5059 22.815ZM48.588 22.8C48.588 21.94 48.748 21.185 49.068 20.535C49.398 19.885 49.843 19.385 50.403 19.035C50.963 18.685 51.588 18.51 52.278 18.51C52.868 18.51 53.383 18.63 53.823 18.87C54.273 19.11 54.618 19.425 54.858 19.815V18.63H57.423V27H54.858V25.815C54.608 26.205 54.258 26.52 53.808 26.76C53.368 27 52.853 27.12 52.263 27.12C51.583 27.12 50.963 26.945 50.403 26.595C49.843 26.235 49.398 25.73 49.068 25.08C48.748 24.42 48.588 23.66 48.588 22.8ZM54.858 22.815C54.858 22.175 54.678 21.67 54.318 21.3C53.968 20.93 53.538 20.745 53.028 20.745C52.518 20.745 52.083 20.93 51.723 21.3C51.373 21.66 51.198 22.16 51.198 22.8C51.198 23.44 51.373 23.95 51.723 24.33C52.083 24.7 52.518 24.885 53.028 24.885C53.538 24.885 53.968 24.7 54.318 24.33C54.678 23.96 54.858 23.455 54.858 22.815ZM63.9436 24.825V27H62.6386C61.7086 27 60.9836 26.775 60.4636 26.325C59.9436 25.865 59.6836 25.12 59.6836 24.09V20.76H58.6636V18.63H59.6836V16.59H62.2486V18.63H63.9286V20.76H62.2486V24.12C62.2486 24.37 62.3086 24.55 62.4286 24.66C62.5486 24.77 62.7486 24.825 63.0286 24.825H63.9436ZM73.2624 22.68C73.2624 22.92 73.2474 23.17 73.2174 23.43H67.4124C67.4524 23.95 67.6174 24.35 67.9074 24.63C68.2074 24.9 68.5724 25.035 69.0024 25.035C69.6424 25.035 70.0874 24.765 70.3374 24.225H73.0674C72.9274 24.775 72.6724 25.27 72.3024 25.71C71.9424 26.15 71.4874 26.495 70.9374 26.745C70.3874 26.995 69.7724 27.12 69.0924 27.12C68.2724 27.12 67.5424 26.945 66.9024 26.595C66.2624 26.245 65.7624 25.745 65.4024 25.095C65.0424 24.445 64.8624 23.685 64.8624 22.815C64.8624 21.945 65.0374 21.185 65.3874 20.535C65.7474 19.885 66.2474 19.385 66.8874 19.035C67.5274 18.685 68.2624 18.51 69.0924 18.51C69.9024 18.51 70.6224 18.68 71.2524 19.02C71.8824 19.36 72.3724 19.845 72.7224 20.475C73.0824 21.105 73.2624 21.84 73.2624 22.68ZM70.6374 22.005C70.6374 21.565 70.4874 21.215 70.1874 20.955C69.8874 20.695 69.5124 20.565 69.0624 20.565C68.6324 20.565 68.2674 20.69 67.9674 20.94C67.6774 21.19 67.4974 21.545 67.4274 22.005H70.6374ZM77.7955 18.51C78.3855 18.51 78.9005 18.63 79.3405 18.87C79.7905 19.11 80.1355 19.425 80.3755 19.815V18.63H82.9405V26.985C82.9405 27.755 82.7855 28.45 82.4755 29.07C82.1755 29.7 81.7105 30.2 81.0805 30.57C80.4605 30.94 79.6855 31.125 78.7555 31.125C77.5155 31.125 76.5105 30.83 75.7405 30.24C74.9705 29.66 74.5305 28.87 74.4205 27.87H76.9555C77.0355 28.19 77.2255 28.44 77.5255 28.62C77.8255 28.81 78.1955 28.905 78.6355 28.905C79.1655 28.905 79.5855 28.75 79.8955 28.44C80.2155 28.14 80.3755 27.655 80.3755 26.985V25.8C80.1255 26.19 79.7805 26.51 79.3405 26.76C78.9005 27 78.3855 27.12 77.7955 27.12C77.1055 27.12 76.4805 26.945 75.9205 26.595C75.3605 26.235 74.9155 25.73 74.5855 25.08C74.2655 24.42 74.1055 23.66 74.1055 22.8C74.1055 21.94 74.2655 21.185 74.5855 20.535C74.9155 19.885 75.3605 19.385 75.9205 19.035C76.4805 18.685 77.1055 18.51 77.7955 18.51ZM80.3755 22.815C80.3755 22.175 80.1955 21.67 79.8355 21.3C79.4855 20.93 79.0555 20.745 78.5455 20.745C78.0355 20.745 77.6005 20.93 77.2405 21.3C76.8905 21.66 76.7155 22.16 76.7155 22.8C76.7155 23.44 76.8905 23.95 77.2405 24.33C77.6005 24.7 78.0355 24.885 78.5455 24.885C79.0555 24.885 79.4855 24.7 79.8355 24.33C80.1955 23.96 80.3755 23.455 80.3755 22.815ZM88.6062 27.12C87.7862 27.12 87.0462 26.945 86.3862 26.595C85.7362 26.245 85.2212 25.745 84.8412 25.095C84.4712 24.445 84.2862 23.685 84.2862 22.815C84.2862 21.955 84.4762 21.2 84.8562 20.55C85.2362 19.89 85.7562 19.385 86.4162 19.035C87.0762 18.685 87.8162 18.51 88.6362 18.51C89.4562 18.51 90.1962 18.685 90.8562 19.035C91.5162 19.385 92.0362 19.89 92.4162 20.55C92.7962 21.2 92.9862 21.955 92.9862 22.815C92.9862 23.675 92.7912 24.435 92.4012 25.095C92.0212 25.745 91.4962 26.245 90.8262 26.595C90.1662 26.945 89.4262 27.12 88.6062 27.12ZM88.6062 24.9C89.0962 24.9 89.5112 24.72 89.8512 24.36C90.2012 24 90.3762 23.485 90.3762 22.815C90.3762 22.145 90.2062 21.63 89.8662 21.27C89.5362 20.91 89.1262 20.73 88.6362 20.73C88.1362 20.73 87.7212 20.91 87.3912 21.27C87.0612 21.62 86.8962 22.135 86.8962 22.815C86.8962 23.485 87.0562 24 87.3762 24.36C87.7062 24.72 88.1162 24.9 88.6062 24.9ZM96.912 20.025C97.212 19.565 97.587 19.205 98.037 18.945C98.487 18.675 98.987 18.54 99.537 18.54V21.255H98.832C98.192 21.255 97.712 21.395 97.392 21.675C97.072 21.945 96.912 22.425 96.912 23.115V27H94.347V18.63H96.912V20.025ZM102.053 17.76C101.603 17.76 101.233 17.63 100.943 17.37C100.663 17.1 100.523 16.77 100.523 16.38C100.523 15.98 100.663 15.65 100.943 15.39C101.233 15.12 101.603 14.985 102.053 14.985C102.493 14.985 102.853 15.12 103.133 15.39C103.423 15.65 103.568 15.98 103.568 16.38C103.568 16.77 103.423 17.1 103.133 17.37C102.853 17.63 102.493 17.76 102.053 17.76ZM103.328 18.63V27H100.763V18.63H103.328ZM113.077 22.68C113.077 22.92 113.062 23.17 113.032 23.43H107.227C107.267 23.95 107.432 24.35 107.722 24.63C108.022 24.9 108.387 25.035 108.817 25.035C109.457 25.035 109.902 24.765 110.152 24.225H112.882C112.742 24.775 112.487 25.27 112.117 25.71C111.757 26.15 111.302 26.495 110.752 26.745C110.202 26.995 109.587 27.12 108.907 27.12C108.087 27.12 107.357 26.945 106.717 26.595C106.077 26.245 105.577 25.745 105.217 25.095C104.857 24.445 104.677 23.685 104.677 22.815C104.677 21.945 104.852 21.185 105.202 20.535C105.562 19.885 106.062 19.385 106.702 19.035C107.342 18.685 108.077 18.51 108.907 18.51C109.717 18.51 110.437 18.68 111.067 19.02C111.697 19.36 112.187 19.845 112.537 20.475C112.897 21.105 113.077 21.84 113.077 22.68ZM110.452 22.005C110.452 21.565 110.302 21.215 110.002 20.955C109.702 20.695 109.327 20.565 108.877 20.565C108.447 20.565 108.082 20.69 107.782 20.94C107.492 21.19 107.312 21.545 107.242 22.005H110.452ZM117.835 27.12C117.105 27.12 116.455 26.995 115.885 26.745C115.315 26.495 114.865 26.155 114.535 25.725C114.205 25.285 114.02 24.795 113.98 24.255H116.515C116.545 24.545 116.68 24.78 116.92 24.96C117.16 25.14 117.455 25.23 117.805 25.23C118.125 25.23 118.37 25.17 118.54 25.05C118.72 24.92 118.81 24.755 118.81 24.555C118.81 24.315 118.685 24.14 118.435 24.03C118.185 23.91 117.78 23.78 117.22 23.64C116.62 23.5 116.12 23.355 115.72 23.205C115.32 23.045 114.975 22.8 114.685 22.47C114.395 22.13 114.25 21.675 114.25 21.105C114.25 20.625 114.38 20.19 114.64 19.8C114.91 19.4 115.3 19.085 115.81 18.855C116.33 18.625 116.945 18.51 117.655 18.51C118.705 18.51 119.53 18.77 120.13 19.29C120.74 19.81 121.09 20.5 121.18 21.36H118.81C118.77 21.07 118.64 20.84 118.42 20.67C118.21 20.5 117.93 20.415 117.58 20.415C117.28 20.415 117.05 20.475 116.89 20.595C116.73 20.705 116.65 20.86 116.65 21.06C116.65 21.3 116.775 21.48 117.025 21.6C117.285 21.72 117.685 21.84 118.225 21.96C118.845 22.12 119.35 22.28 119.74 22.44C120.13 22.59 120.47 22.84 120.76 23.19C121.06 23.53 121.215 23.99 121.225 24.57C121.225 25.06 121.085 25.5 120.805 25.89C120.535 26.27 120.14 26.57 119.62 26.79C119.11 27.01 118.515 27.12 117.835 27.12Z" fill="#151515"/>
<path d="M134.812 20.5334L137.552 23.2734C137.677 23.3975 137.846 23.4672 138.022 23.4672C138.199 23.4672 138.368 23.3975 138.492 23.2734L141.159 20.6067" stroke="#6A983C" stroke-width="2.5" stroke-linecap="round" stroke-linejoin="bevel"/>
<line x1="170.5" y1="11" x2="170.5" y2="31" stroke="#D1D1D1"/>
<path d="M201.014 23.3408C201.014 24.2204 200.695 24.9062 200.057 25.3984C199.419 25.8906 198.553 26.1367 197.459 26.1367C196.274 26.1367 195.363 25.984 194.725 25.6787V24.5576C195.135 24.7308 195.581 24.8675 196.064 24.9678C196.548 25.068 197.026 25.1182 197.5 25.1182C198.275 25.1182 198.858 24.9723 199.25 24.6807C199.642 24.3844 199.838 23.9743 199.838 23.4502C199.838 23.1038 199.767 22.8213 199.626 22.6025C199.489 22.3792 199.257 22.1742 198.929 21.9873C198.605 21.8005 198.111 21.5885 197.445 21.3516C196.516 21.0189 195.85 20.6247 195.449 20.1689C195.053 19.7132 194.854 19.1185 194.854 18.3848C194.854 17.6146 195.144 17.0016 195.723 16.5459C196.301 16.0902 197.067 15.8623 198.02 15.8623C199.013 15.8623 199.927 16.0446 200.761 16.4092L200.398 17.4209C199.574 17.0745 198.771 16.9014 197.992 16.9014C197.377 16.9014 196.896 17.0335 196.55 17.2979C196.203 17.5622 196.03 17.929 196.03 18.3984C196.03 18.7448 196.094 19.0296 196.222 19.2529C196.349 19.4717 196.563 19.6745 196.864 19.8613C197.17 20.0436 197.634 20.2464 198.259 20.4697C199.307 20.8434 200.027 21.2445 200.419 21.6729C200.815 22.1012 201.014 22.6572 201.014 23.3408ZM206.052 26.1367C204.944 26.1367 204.069 25.7995 203.427 25.125C202.789 24.4505 202.47 23.514 202.47 22.3154C202.47 21.1077 202.766 20.1484 203.358 19.4375C203.955 18.7266 204.755 18.3711 205.758 18.3711C206.697 18.3711 207.439 18.681 207.986 19.3008C208.533 19.916 208.807 20.7295 208.807 21.7412V22.459H203.646C203.668 23.3385 203.889 24.0062 204.309 24.4619C204.732 24.9176 205.327 25.1455 206.093 25.1455C206.899 25.1455 207.697 24.9769 208.485 24.6396V25.6514C208.084 25.8245 207.704 25.9476 207.344 26.0205C206.988 26.098 206.558 26.1367 206.052 26.1367ZM205.744 19.3213C205.143 19.3213 204.662 19.5173 204.302 19.9092C203.946 20.3011 203.737 20.8434 203.673 21.5361H207.59C207.59 20.8206 207.43 20.2738 207.111 19.8955C206.792 19.5127 206.337 19.3213 205.744 19.3213ZM215.355 26L215.13 24.9336H215.075C214.701 25.403 214.328 25.722 213.954 25.8906C213.585 26.0547 213.122 26.1367 212.566 26.1367C211.824 26.1367 211.24 25.9453 210.816 25.5625C210.397 25.1797 210.188 24.6351 210.188 23.9287C210.188 22.4157 211.397 21.6227 213.817 21.5498L215.089 21.5088V21.0439C215.089 20.4561 214.961 20.0231 214.706 19.7451C214.455 19.4626 214.052 19.3213 213.496 19.3213C212.872 19.3213 212.165 19.5127 211.377 19.8955L211.028 19.0273C211.397 18.8268 211.801 18.6696 212.238 18.5557C212.68 18.4417 213.122 18.3848 213.564 18.3848C214.458 18.3848 215.118 18.583 215.547 18.9795C215.98 19.376 216.196 20.0117 216.196 20.8867V26H215.355ZM212.792 25.2002C213.498 25.2002 214.052 25.0065 214.453 24.6191C214.859 24.2318 215.062 23.6895 215.062 22.9922V22.3154L213.927 22.3633C213.024 22.3952 212.373 22.5365 211.972 22.7871C211.575 23.0332 211.377 23.4183 211.377 23.9424C211.377 24.3525 211.5 24.6647 211.746 24.8789C211.997 25.0931 212.345 25.2002 212.792 25.2002ZM221.959 18.3711C222.292 18.3711 222.59 18.3984 222.854 18.4531L222.697 19.5059C222.387 19.4375 222.114 19.4033 221.877 19.4033C221.271 19.4033 220.751 19.6494 220.318 20.1416C219.89 20.6338 219.676 21.2467 219.676 21.9805V26H218.541V18.5078H219.478L219.607 19.8955H219.662C219.94 19.4079 220.275 19.0319 220.667 18.7676C221.059 18.5033 221.49 18.3711 221.959 18.3711ZM227.25 26.1367C226.165 26.1367 225.325 25.804 224.728 25.1387C224.135 24.4688 223.839 23.5231 223.839 22.3018C223.839 21.0485 224.14 20.0801 224.741 19.3965C225.347 18.7129 226.209 18.3711 227.325 18.3711C227.685 18.3711 228.045 18.4098 228.405 18.4873C228.765 18.5648 229.048 18.6559 229.253 18.7607L228.904 19.7246C228.654 19.6243 228.38 19.5423 228.084 19.4785C227.788 19.4102 227.526 19.376 227.298 19.376C225.776 19.376 225.015 20.3467 225.015 22.2881C225.015 23.2087 225.199 23.915 225.568 24.4072C225.942 24.8994 226.493 25.1455 227.223 25.1455C227.847 25.1455 228.487 25.0111 229.144 24.7422V25.7471C228.642 26.0068 228.011 26.1367 227.25 26.1367ZM236.055 26V21.1533C236.055 20.5426 235.916 20.0869 235.638 19.7861C235.36 19.4854 234.924 19.335 234.332 19.335C233.544 19.335 232.967 19.5492 232.603 19.9775C232.243 20.4059 232.062 21.1077 232.062 22.083V26H230.928V15.3633H232.062V18.583C232.062 18.9704 232.044 19.2917 232.008 19.5469H232.076C232.299 19.1868 232.616 18.9043 233.026 18.6992C233.441 18.4896 233.913 18.3848 234.441 18.3848C235.357 18.3848 236.043 18.6035 236.499 19.041C236.959 19.474 237.189 20.1644 237.189 21.1123V26H236.055ZM249.672 18.918C249.672 19.9297 249.326 20.709 248.633 21.2559C247.945 21.7982 246.958 22.0693 245.673 22.0693H244.497V26H243.335V16.0059H245.926C248.423 16.0059 249.672 16.9766 249.672 18.918ZM244.497 21.0713H245.543C246.573 21.0713 247.318 20.9049 247.778 20.5723C248.239 20.2396 248.469 19.7064 248.469 18.9727C248.469 18.3118 248.252 17.8197 247.819 17.4961C247.386 17.1725 246.712 17.0107 245.796 17.0107H244.497V21.0713ZM255.018 18.3711C255.35 18.3711 255.649 18.3984 255.913 18.4531L255.756 19.5059C255.446 19.4375 255.173 19.4033 254.936 19.4033C254.329 19.4033 253.81 19.6494 253.377 20.1416C252.949 20.6338 252.734 21.2467 252.734 21.9805V26H251.6V18.5078H252.536L252.666 19.8955H252.721C252.999 19.4079 253.334 19.0319 253.726 18.7676C254.118 18.5033 254.548 18.3711 255.018 18.3711ZM263.781 22.2471C263.781 23.4684 263.474 24.4232 262.858 25.1113C262.243 25.7949 261.393 26.1367 260.309 26.1367C259.639 26.1367 259.044 25.9795 258.524 25.665C258.005 25.3506 257.604 24.8994 257.321 24.3115C257.039 23.7236 256.897 23.0355 256.897 22.2471C256.897 21.0257 257.203 20.0755 257.813 19.3965C258.424 18.7129 259.272 18.3711 260.356 18.3711C261.405 18.3711 262.236 18.7197 262.852 19.417C263.471 20.1143 263.781 21.0576 263.781 22.2471ZM258.073 22.2471C258.073 23.2041 258.265 23.9333 258.647 24.4346C259.03 24.9359 259.593 25.1865 260.336 25.1865C261.079 25.1865 261.642 24.9382 262.024 24.4414C262.412 23.9401 262.605 23.2087 262.605 22.2471C262.605 21.2946 262.412 20.5723 262.024 20.0801C261.642 19.5833 261.074 19.335 260.322 19.335C259.579 19.335 259.019 19.5788 258.641 20.0664C258.262 20.554 258.073 21.2809 258.073 22.2471ZM270.877 24.9951H270.815C270.291 25.7562 269.507 26.1367 268.464 26.1367C267.484 26.1367 266.721 25.8018 266.174 25.1318C265.632 24.4619 265.36 23.5094 265.36 22.2744C265.36 21.0394 265.634 20.0801 266.181 19.3965C266.728 18.7129 267.489 18.3711 268.464 18.3711C269.48 18.3711 270.259 18.7402 270.802 19.4785H270.891L270.843 18.9385L270.815 18.4121V15.3633H271.95V26H271.027L270.877 24.9951ZM268.607 25.1865C269.382 25.1865 269.943 24.9769 270.289 24.5576C270.64 24.1338 270.815 23.4525 270.815 22.5137V22.2744C270.815 21.2126 270.638 20.4561 270.282 20.0049C269.931 19.5492 269.368 19.3213 268.594 19.3213C267.928 19.3213 267.418 19.5811 267.062 20.1006C266.712 20.6156 266.536 21.3447 266.536 22.2881C266.536 23.2451 266.712 23.9674 267.062 24.4551C267.413 24.9427 267.928 25.1865 268.607 25.1865ZM275.43 18.5078V23.3682C275.43 23.9788 275.569 24.4346 275.847 24.7354C276.125 25.0361 276.56 25.1865 277.152 25.1865C277.936 25.1865 278.508 24.9723 278.868 24.5439C279.233 24.1156 279.415 23.416 279.415 22.4453V18.5078H280.55V26H279.613L279.449 24.9951H279.388C279.155 25.3643 278.832 25.6468 278.417 25.8428C278.007 26.0387 277.537 26.1367 277.009 26.1367C276.097 26.1367 275.414 25.9202 274.958 25.4873C274.507 25.0544 274.281 24.3617 274.281 23.4092V18.5078H275.43ZM285.957 26.1367C284.872 26.1367 284.032 25.804 283.435 25.1387C282.842 24.4688 282.546 23.5231 282.546 22.3018C282.546 21.0485 282.847 20.0801 283.448 19.3965C284.054 18.7129 284.916 18.3711 286.032 18.3711C286.392 18.3711 286.752 18.4098 287.112 18.4873C287.472 18.5648 287.755 18.6559 287.96 18.7607L287.611 19.7246C287.361 19.6243 287.087 19.5423 286.791 19.4785C286.495 19.4102 286.233 19.376 286.005 19.376C284.483 19.376 283.722 20.3467 283.722 22.2881C283.722 23.2087 283.906 23.915 284.275 24.4072C284.649 24.8994 285.201 25.1455 285.93 25.1455C286.554 25.1455 287.194 25.0111 287.851 24.7422V25.7471C287.349 26.0068 286.718 26.1367 285.957 26.1367ZM292.055 25.2002C292.255 25.2002 292.449 25.1865 292.636 25.1592C292.823 25.1273 292.971 25.0954 293.08 25.0635V25.9316C292.957 25.9909 292.775 26.0387 292.533 26.0752C292.296 26.1162 292.082 26.1367 291.891 26.1367C290.441 26.1367 289.717 25.3734 289.717 23.8467V19.3896H288.644V18.8428L289.717 18.3711L290.195 16.7715H290.852V18.5078H293.025V19.3896H290.852V23.7988C290.852 24.25 290.959 24.5964 291.173 24.8379C291.387 25.0794 291.681 25.2002 292.055 25.2002ZM299.417 23.9561C299.417 24.6533 299.157 25.1911 298.638 25.5693C298.118 25.9476 297.389 26.1367 296.45 26.1367C295.457 26.1367 294.682 25.9795 294.126 25.665V24.6123C294.486 24.7946 294.871 24.9382 295.281 25.043C295.696 25.1478 296.095 25.2002 296.478 25.2002C297.07 25.2002 297.526 25.1068 297.845 24.9199C298.164 24.7285 298.323 24.4391 298.323 24.0518C298.323 23.7601 298.196 23.5117 297.94 23.3066C297.69 23.097 297.198 22.8509 296.464 22.5684C295.767 22.3086 295.27 22.083 294.974 21.8916C294.682 21.6956 294.463 21.4746 294.317 21.2285C294.176 20.9824 294.105 20.6885 294.105 20.3467C294.105 19.736 294.354 19.2552 294.851 18.9043C295.347 18.5488 296.029 18.3711 296.895 18.3711C297.701 18.3711 298.49 18.5352 299.26 18.8633L298.856 19.7861C298.104 19.4762 297.423 19.3213 296.812 19.3213C296.275 19.3213 295.869 19.4056 295.596 19.5742C295.322 19.7428 295.186 19.9753 295.186 20.2715C295.186 20.472 295.236 20.6429 295.336 20.7842C295.441 20.9255 295.607 21.0599 295.835 21.1875C296.063 21.3151 296.5 21.4997 297.147 21.7412C298.036 22.0648 298.635 22.3906 298.945 22.7188C299.26 23.0469 299.417 23.4593 299.417 23.9561ZM302.459 24.373L302.562 24.5303C302.443 24.986 302.272 25.5146 302.049 26.1162C301.826 26.7223 301.593 27.2852 301.352 27.8047H300.497C300.62 27.3307 300.755 26.7451 300.9 26.0479C301.051 25.3506 301.156 24.7923 301.215 24.373H302.459ZM311.332 26.1367C310.247 26.1367 309.407 25.804 308.81 25.1387C308.217 24.4688 307.921 23.5231 307.921 22.3018C307.921 21.0485 308.222 20.0801 308.823 19.3965C309.429 18.7129 310.291 18.3711 311.407 18.3711C311.767 18.3711 312.127 18.4098 312.487 18.4873C312.847 18.5648 313.13 18.6559 313.335 18.7607L312.986 19.7246C312.736 19.6243 312.462 19.5423 312.166 19.4785C311.87 19.4102 311.608 19.376 311.38 19.376C309.858 19.376 309.097 20.3467 309.097 22.2881C309.097 23.2087 309.281 23.915 309.65 24.4072C310.024 24.8994 310.576 25.1455 311.305 25.1455C311.929 25.1455 312.569 25.0111 313.226 24.7422V25.7471C312.724 26.0068 312.093 26.1367 311.332 26.1367ZM319.617 26L319.392 24.9336H319.337C318.963 25.403 318.59 25.722 318.216 25.8906C317.847 26.0547 317.384 26.1367 316.828 26.1367C316.085 26.1367 315.502 25.9453 315.078 25.5625C314.659 25.1797 314.449 24.6351 314.449 23.9287C314.449 22.4157 315.659 21.6227 318.079 21.5498L319.351 21.5088V21.0439C319.351 20.4561 319.223 20.0231 318.968 19.7451C318.717 19.4626 318.314 19.3213 317.758 19.3213C317.133 19.3213 316.427 19.5127 315.639 19.8955L315.29 19.0273C315.659 18.8268 316.062 18.6696 316.5 18.5557C316.942 18.4417 317.384 18.3848 317.826 18.3848C318.719 18.3848 319.38 18.583 319.809 18.9795C320.242 19.376 320.458 20.0117 320.458 20.8867V26H319.617ZM317.054 25.2002C317.76 25.2002 318.314 25.0065 318.715 24.6191C319.12 24.2318 319.323 23.6895 319.323 22.9922V22.3154L318.188 22.3633C317.286 22.3952 316.634 22.5365 316.233 22.7871C315.837 23.0332 315.639 23.4183 315.639 23.9424C315.639 24.3525 315.762 24.6647 316.008 24.8789C316.258 25.0931 316.607 25.2002 317.054 25.2002ZM325.223 25.2002C325.423 25.2002 325.617 25.1865 325.804 25.1592C325.991 25.1273 326.139 25.0954 326.248 25.0635V25.9316C326.125 25.9909 325.943 26.0387 325.701 26.0752C325.464 26.1162 325.25 26.1367 325.059 26.1367C323.609 26.1367 322.885 25.3734 322.885 23.8467V19.3896H321.812V18.8428L322.885 18.3711L323.363 16.7715H324.02V18.5078H326.193V19.3896H324.02V23.7988C324.02 24.25 324.127 24.5964 324.341 24.8379C324.555 25.0794 324.849 25.2002 325.223 25.2002ZM330.917 26.1367C329.81 26.1367 328.935 25.7995 328.292 25.125C327.654 24.4505 327.335 23.514 327.335 22.3154C327.335 21.1077 327.631 20.1484 328.224 19.4375C328.821 18.7266 329.62 18.3711 330.623 18.3711C331.562 18.3711 332.305 18.681 332.852 19.3008C333.398 19.916 333.672 20.7295 333.672 21.7412V22.459H328.511C328.534 23.3385 328.755 24.0062 329.174 24.4619C329.598 24.9176 330.192 25.1455 330.958 25.1455C331.765 25.1455 332.562 24.9769 333.351 24.6396V25.6514C332.95 25.8245 332.569 25.9476 332.209 26.0205C331.854 26.098 331.423 26.1367 330.917 26.1367ZM330.609 19.3213C330.008 19.3213 329.527 19.5173 329.167 19.9092C328.812 20.3011 328.602 20.8434 328.538 21.5361H332.455C332.455 20.8206 332.296 20.2738 331.977 19.8955C331.658 19.5127 331.202 19.3213 330.609 19.3213ZM341.745 18.5078V19.2256L340.357 19.3896C340.485 19.5492 340.599 19.7588 340.699 20.0186C340.799 20.2738 340.85 20.5632 340.85 20.8867C340.85 21.6204 340.599 22.2061 340.098 22.6436C339.596 23.0811 338.908 23.2998 338.033 23.2998C337.81 23.2998 337.6 23.2816 337.404 23.2451C336.921 23.5003 336.68 23.8216 336.68 24.209C336.68 24.4141 336.764 24.5667 336.933 24.667C337.101 24.7627 337.391 24.8105 337.801 24.8105H339.127C339.938 24.8105 340.56 24.9814 340.993 25.3232C341.431 25.665 341.649 26.1618 341.649 26.8135C341.649 27.6429 341.317 28.2741 340.651 28.707C339.986 29.1445 339.015 29.3633 337.739 29.3633C336.759 29.3633 336.003 29.181 335.47 28.8164C334.941 28.4518 334.677 27.9368 334.677 27.2715C334.677 26.8158 334.823 26.4215 335.114 26.0889C335.406 25.7562 335.816 25.5306 336.345 25.4121C336.153 25.3255 335.992 25.1911 335.859 25.0088C335.732 24.8265 335.668 24.6146 335.668 24.373C335.668 24.0996 335.741 23.8604 335.887 23.6553C336.033 23.4502 336.263 23.252 336.577 23.0605C336.19 22.901 335.873 22.6299 335.627 22.2471C335.385 21.8643 335.265 21.4268 335.265 20.9346C335.265 20.1143 335.511 19.4831 336.003 19.041C336.495 18.5944 337.192 18.3711 338.095 18.3711C338.487 18.3711 338.84 18.4167 339.154 18.5078H341.745ZM335.771 27.2578C335.771 27.6634 335.941 27.971 336.283 28.1807C336.625 28.3903 337.115 28.4951 337.753 28.4951C338.705 28.4951 339.41 28.3516 339.865 28.0645C340.326 27.7819 340.556 27.3968 340.556 26.9092C340.556 26.5036 340.43 26.221 340.18 26.0615C339.929 25.9066 339.457 25.8291 338.765 25.8291H337.404C336.889 25.8291 336.488 25.9521 336.201 26.1982C335.914 26.4443 335.771 26.7975 335.771 27.2578ZM336.386 20.9072C336.386 21.4313 336.534 21.8278 336.83 22.0967C337.126 22.3656 337.539 22.5 338.067 22.5C339.175 22.5 339.729 21.9622 339.729 20.8867C339.729 19.7611 339.168 19.1982 338.047 19.1982C337.514 19.1982 337.104 19.3418 336.816 19.6289C336.529 19.916 336.386 20.3421 336.386 20.9072ZM349.75 22.2471C349.75 23.4684 349.442 24.4232 348.827 25.1113C348.212 25.7949 347.362 26.1367 346.277 26.1367C345.607 26.1367 345.013 25.9795 344.493 25.665C343.974 25.3506 343.573 24.8994 343.29 24.3115C343.007 23.7236 342.866 23.0355 342.866 22.2471C342.866 21.0257 343.172 20.0755 343.782 19.3965C344.393 18.7129 345.241 18.3711 346.325 18.3711C347.373 18.3711 348.205 18.7197 348.82 19.417C349.44 20.1143 349.75 21.0576 349.75 22.2471ZM344.042 22.2471C344.042 23.2041 344.233 23.9333 344.616 24.4346C344.999 24.9359 345.562 25.1865 346.305 25.1865C347.048 25.1865 347.61 24.9382 347.993 24.4414C348.381 23.9401 348.574 23.2087 348.574 22.2471C348.574 21.2946 348.381 20.5723 347.993 20.0801C347.61 19.5833 347.043 19.335 346.291 19.335C345.548 19.335 344.988 19.5788 344.609 20.0664C344.231 20.554 344.042 21.2809 344.042 22.2471ZM355.164 18.3711C355.497 18.3711 355.795 18.3984 356.06 18.4531L355.902 19.5059C355.592 19.4375 355.319 19.4033 355.082 19.4033C354.476 19.4033 353.956 19.6494 353.523 20.1416C353.095 20.6338 352.881 21.2467 352.881 21.9805V26H351.746V18.5078H352.683L352.812 19.8955H352.867C353.145 19.4079 353.48 19.0319 353.872 18.7676C354.264 18.5033 354.695 18.3711 355.164 18.3711ZM358.596 26H357.461V18.5078H358.596V26ZM357.365 16.4775C357.365 16.2178 357.429 16.0286 357.557 15.9102C357.684 15.7871 357.844 15.7256 358.035 15.7256C358.217 15.7256 358.375 15.7871 358.507 15.9102C358.639 16.0332 358.705 16.2223 358.705 16.4775C358.705 16.7327 358.639 16.9242 358.507 17.0518C358.375 17.1748 358.217 17.2363 358.035 17.2363C357.844 17.2363 357.684 17.1748 357.557 17.0518C357.429 16.9242 357.365 16.7327 357.365 16.4775ZM364.167 26.1367C363.06 26.1367 362.185 25.7995 361.542 25.125C360.904 24.4505 360.585 23.514 360.585 22.3154C360.585 21.1077 360.881 20.1484 361.474 19.4375C362.071 18.7266 362.87 18.3711 363.873 18.3711C364.812 18.3711 365.555 18.681 366.102 19.3008C366.648 19.916 366.922 20.7295 366.922 21.7412V22.459H361.761C361.784 23.3385 362.005 24.0062 362.424 24.4619C362.848 24.9176 363.442 25.1455 364.208 25.1455C365.015 25.1455 365.812 24.9769 366.601 24.6396V25.6514C366.2 25.8245 365.819 25.9476 365.459 26.0205C365.104 26.098 364.673 26.1367 364.167 26.1367ZM363.859 19.3213C363.258 19.3213 362.777 19.5173 362.417 19.9092C362.062 20.3011 361.852 20.8434 361.788 21.5361H365.705C365.705 20.8206 365.546 20.2738 365.227 19.8955C364.908 19.5127 364.452 19.3213 363.859 19.3213ZM373.696 23.9561C373.696 24.6533 373.437 25.1911 372.917 25.5693C372.397 25.9476 371.668 26.1367 370.729 26.1367C369.736 26.1367 368.961 25.9795 368.405 25.665V24.6123C368.765 24.7946 369.15 24.9382 369.561 25.043C369.975 25.1478 370.374 25.2002 370.757 25.2002C371.349 25.2002 371.805 25.1068 372.124 24.9199C372.443 24.7285 372.603 24.4391 372.603 24.0518C372.603 23.7601 372.475 23.5117 372.22 23.3066C371.969 23.097 371.477 22.8509 370.743 22.5684C370.046 22.3086 369.549 22.083 369.253 21.8916C368.961 21.6956 368.743 21.4746 368.597 21.2285C368.455 20.9824 368.385 20.6885 368.385 20.3467C368.385 19.736 368.633 19.2552 369.13 18.9043C369.627 18.5488 370.308 18.3711 371.174 18.3711C371.98 18.3711 372.769 18.5352 373.539 18.8633L373.136 19.7861C372.384 19.4762 371.702 19.3213 371.092 19.3213C370.554 19.3213 370.148 19.4056 369.875 19.5742C369.602 19.7428 369.465 19.9753 369.465 20.2715C369.465 20.472 369.515 20.6429 369.615 20.7842C369.72 20.9255 369.886 21.0599 370.114 21.1875C370.342 21.3151 370.78 21.4997 371.427 21.7412C372.315 22.0648 372.915 22.3906 373.225 22.7188C373.539 23.0469 373.696 23.4593 373.696 23.9561ZM379.021 25.2754C379.021 24.9701 379.09 24.7399 379.227 24.585C379.368 24.4255 379.568 24.3457 379.828 24.3457C380.092 24.3457 380.298 24.4255 380.443 24.585C380.594 24.7399 380.669 24.9701 380.669 25.2754C380.669 25.5716 380.594 25.7995 380.443 25.959C380.293 26.1185 380.088 26.1982 379.828 26.1982C379.596 26.1982 379.402 26.1276 379.247 25.9863C379.097 25.8405 379.021 25.6035 379.021 25.2754ZM382.754 25.2754C382.754 24.9701 382.822 24.7399 382.959 24.585C383.1 24.4255 383.301 24.3457 383.561 24.3457C383.825 24.3457 384.03 24.4255 384.176 24.585C384.326 24.7399 384.401 24.9701 384.401 25.2754C384.401 25.5716 384.326 25.7995 384.176 25.959C384.025 26.1185 383.82 26.1982 383.561 26.1982C383.328 26.1982 383.134 26.1276 382.979 25.9863C382.829 25.8405 382.754 25.6035 382.754 25.2754ZM386.486 25.2754C386.486 24.9701 386.555 24.7399 386.691 24.585C386.833 24.4255 387.033 24.3457 387.293 24.3457C387.557 24.3457 387.762 24.4255 387.908 24.585C388.059 24.7399 388.134 24.9701 388.134 25.2754C388.134 25.5716 388.059 25.7995 387.908 25.959C387.758 26.1185 387.553 26.1982 387.293 26.1982C387.061 26.1982 386.867 26.1276 386.712 25.9863C386.562 25.8405 386.486 25.6035 386.486 25.2754Z" fill="#A9A9A9"/>
<path d="M477.194 24.4333C479.771 24.4333 481.861 22.3439 481.861 19.7666C481.861 17.1893 479.771 15.0999 477.194 15.0999C474.617 15.0999 472.527 17.1893 472.527 19.7666C472.527 22.3439 474.617 24.4333 477.194 24.4333Z" stroke="#151515" stroke-width="1.5" stroke-linecap="round" stroke-linejoin="bevel"/>
<path d="M473.814 23.24L470.688 26.3667" stroke="#151515" stroke-width="1.5" stroke-linecap="round" stroke-linejoin="bevel"/>
</svg>
