<svg width="78" height="48" viewBox="0 0 78 48" fill="none" xmlns="http://www.w3.org/2000/svg">
<path d="M0 12C0 5.37258 5.37258 0 12 0H66C72.6274 0 78 5.37258 78 12V36C78 42.6274 72.6274 48 66 48H12C5.37258 48 0 42.6274 0 36V12Z" fill="#6A983C"/>
<path d="M12 2H66V-2H12V2ZM76 12V36H80V12H76ZM66 46H12V50H66V46ZM2 36V12H-2V36H2ZM12 46C6.47715 46 2 41.5228 2 36H-2C-2 43.732 4.26801 50 12 50V46ZM76 36C76 41.5228 71.5228 46 66 46V50C73.732 50 80 43.732 80 36H76ZM66 2C71.5228 2 76 6.47715 76 12H80C80 4.26801 73.732 -2 66 -2V2ZM12 -2C4.26801 -2 -2 4.26801 -2 12H2C2 6.47715 6.47715 2 12 2V-2Z" fill="#46760A"/>
</svg>
