<svg width="91" height="36" viewBox="0 0 91 36" fill="none" xmlns="http://www.w3.org/2000/svg">
<path d="M0.0078125 12C0.0078125 5.37258 5.3804 0 12.0078 0H78.0078C84.6352 0 90.0078 5.37258 90.0078 12V24C90.0078 30.6274 84.6352 36 78.0078 36H12.0078C5.38039 36 0.0078125 30.6274 0.0078125 24V12Z" fill="#6A983C"/>
<path d="M12.0078 2H78.0078V-2H12.0078V2ZM88.0078 12V24H92.0078V12H88.0078ZM78.0078 34H12.0078V38H78.0078V34ZM2.00781 24V12H-1.99219V24H2.00781ZM12.0078 34C6.48496 34 2.00781 29.5228 2.00781 24H-1.99219C-1.99219 31.732 4.27583 38 12.0078 38V34ZM88.0078 24C88.0078 29.5228 83.5307 34 78.0078 34V38C85.7398 38 92.0078 31.732 92.0078 24H88.0078ZM78.0078 2C83.5307 2 88.0078 6.47715 88.0078 12H92.0078C92.0078 4.26801 85.7398 -2 78.0078 -2V2ZM12.0078 -2C4.27583 -2 -1.99219 4.26801 -1.99219 12H2.00781C2.00781 6.47715 6.48497 2 12.0078 2V-2Z" fill="#46760A"/>
</svg>
